# xmcd CD database file
#
# Track frame offsets:
#	150
#	15825
#	28875
#	42487
#	59775
#	71737
#	90525
#	107212
#	121387
#	131325
#	143812
#	159337
#
# Disc length: 2332 seconds
#
# Revision: 1
# Processed by: cddbd v1.4PL0 Copyright (c) Steve Scherf et al.
# Submitted via: CDex 1.50
#
DISCID=a5091a0c
DTITLE=J.D. Crowe and The New South - Come on Down to My World
DYEAR=1999
DGENRE=Bluegrass
TTITLE0=Back to the Barrooms
TTITLE1=Come on Down to My World
TTITLE2=Come Back Sweetheart
TTITLE3=I'm So Afraid of Losing You Again
TTITLE4=J's Tune
TTITLE5=I Don't Know
TTITLE6=Grandpa's Shoes
TTITLE7=You Didn't Say Goodbye
TTITLE8=Careless Love
TTITLE9=My Blue Eyes You Left In Tennessee
TTITLE10=White Freightliner
TTITLE11=I'm Goin' That Way
EXTD=YEAR: 1999
EXTT0=
EXTT1=
EXTT2=
EXTT3=
EXTT4=
EXTT5=
EXTT6=
EXTT7=
EXTT8=
EXTT9=
EXTT10=
EXTT11=
PLAYORDER=
